<svg width="61" height="90" viewBox="0 0 61 90" fill="none" xmlns="http://www.w3.org/2000/svg">
<path d="M24.2877 3.45968C25.1024 3.33315 25.6692 2.56231 25.5538 1.73798C25.4384 0.913645 24.6844 0.347967 23.8697 0.474502L24.2877 3.45968ZM60.0295 81.6255C60.7275 81.1758 60.9401 80.2418 60.5044 79.5395L53.4039 68.0949C52.9682 67.3926 52.0491 67.1879 51.3511 67.6377C50.6531 68.0875 50.4405 69.0214 50.8762 69.7237L57.1878 79.8967L47.0772 86.4121C46.3792 86.8619 46.1666 87.7959 46.6024 88.4982C47.0381 89.2005 47.9571 89.4051 48.6551 88.9554L60.0295 81.6255ZM23.8697 0.474502C8.654 2.83776 -2.23085 19.0509 0.611099 36.6499C3.47653 54.3944 20.0863 73.1831 58.9048 81.829L59.5764 78.8789C21.3775 70.371 6.14412 52.1815 3.55184 36.1286C0.936069 19.9302 10.979 5.52675 24.2877 3.45968L23.8697 0.474502Z" fill="url(#paint0_linear_38_634)"/>
<defs>
<linearGradient id="paint0_linear_38_634" x1="7.68754" y1="8.63064" x2="44.6315" y2="87.2214" gradientUnits="userSpaceOnUse">
<stop stop-color="#1A7CBF"/>
<stop offset="1" stop-color="#25CF41"/>
</linearGradient>
</defs>
</svg>
