<svg width="36" height="24" viewBox="0 0 36 24" fill="none" xmlns="http://www.w3.org/2000/svg">
<path d="M29.6704 16.2L23.985 9.51541L29.0349 6.63432C29.5284 6.3529 29.7001 5.72465 29.4187 5.23128C29.1372 4.73784 28.5088 4.566 28.0156 4.84748C27.5933 5.08837 18.0239 10.5478 17.5539 10.816C17.0815 10.5465 7.5098 5.08577 7.09213 4.84748C6.59869 4.56606 5.97065 4.7377 5.68902 5.23128C5.40761 5.72465 5.57931 6.35283 6.07282 6.63432L11.1228 9.51541L5.43723 16.2C5.06921 16.6328 5.12159 17.2818 5.55435 17.6499C5.98703 18.0181 6.6364 17.9654 7.00422 17.5328L12.9409 10.5528L17.0442 12.8937C17.3601 13.0739 17.7477 13.0739 18.0635 12.8937L22.1667 10.5528L28.1034 17.5328C28.4715 17.9657 29.1209 18.0178 29.5533 17.6499C29.9861 17.2819 30.0385 16.6328 29.6704 16.2Z" fill="black"/>
<path d="M32.0229 0H3.08571C1.38425 0 0 1.38425 0 3.08571V20.9143C0 22.6157 1.38425 24 3.08571 24H32.0229C33.7243 24 35.1086 22.6157 35.1086 20.9143V3.08571C35.1086 1.38425 33.7243 0 32.0229 0ZM33.0514 20.9143C33.0514 21.4814 32.59 21.9429 32.0229 21.9429H3.08571C2.51856 21.9429 2.05714 21.4814 2.05714 20.9143V3.08571C2.05714 2.51856 2.51856 2.05714 3.08571 2.05714H32.0229C32.59 2.05714 33.0514 2.51856 33.0514 3.08571V20.9143Z" fill="black"/>
</svg>
