<svg width="151" height="150" viewBox="0 0 151 150" fill="none" xmlns="http://www.w3.org/2000/svg">
<path d="M94.9385 98.0273C94.8301 97.8764 94.687 97.7537 94.5213 97.6696C94.3556 97.5855 94.1721 97.5424 93.9863 97.5439H87.5117C86.5596 97.5439 86.0029 98.6279 86.5596 99.4043L97.3701 114.36C97.8389 115.005 98.791 115.005 99.2598 114.36L115.988 91.2158C116.545 90.4395 115.988 89.3555 115.036 89.3555H108.547C108.166 89.3555 107.814 89.5312 107.595 89.8389L98.293 102.7L94.9385 98.0273ZM101.281 44.8242V37.793C101.281 37.1484 100.754 36.6211 100.109 36.6211H43.8594C43.2148 36.6211 42.6875 37.1484 42.6875 37.793V44.8242C42.6875 45.4688 43.2148 45.9961 43.8594 45.9961H100.109C100.754 45.9961 101.281 45.4688 101.281 44.8242ZM43.8594 57.7148C43.2148 57.7148 42.6875 58.2422 42.6875 58.8867V65.918C42.6875 66.5625 43.2148 67.0898 43.8594 67.0898H70.8125C71.457 67.0898 71.9844 66.5625 71.9844 65.918V58.8867C71.9844 58.2422 71.457 57.7148 70.8125 57.7148H43.8594ZM70.8125 124.805H30.9688V21.6797H113V65.0391C113 65.6836 113.527 66.2109 114.172 66.2109H122.375C123.02 66.2109 123.547 65.6836 123.547 65.0391V15.8203C123.547 13.2275 121.452 11.1328 118.859 11.1328H25.1094C22.5166 11.1328 20.4219 13.2275 20.4219 15.8203V130.664C20.4219 133.257 22.5166 135.352 25.1094 135.352H70.8125C71.457 135.352 71.9844 134.824 71.9844 134.18V125.977C71.9844 125.332 71.457 124.805 70.8125 124.805ZM129.787 77.8125L101.662 68.042C101.53 67.998 101.413 67.9834 101.281 67.9834C101.149 67.9834 101.018 67.998 100.9 68.042L72.7754 77.8125C72.5456 77.8905 72.3459 78.0383 72.2041 78.2353C72.0623 78.4322 71.9855 78.6685 71.9844 78.9111V115.693C71.9844 116.06 72.1455 116.396 72.4385 116.616L100.563 138.618C100.769 138.779 101.032 138.867 101.281 138.867C101.53 138.867 101.794 138.779 101.999 138.618L130.124 116.616C130.402 116.396 130.578 116.06 130.578 115.693V78.9111C130.578 78.4131 130.256 77.9736 129.787 77.8125ZM121.496 111.87L101.281 127.676L81.0664 111.87V84.5215L101.281 77.4902L121.496 84.5215V111.87Z" fill="url(#paint0_linear_66_284)"/>
<defs>
<linearGradient id="paint0_linear_66_284" x1="75.5" y1="11.1328" x2="75.5" y2="138.867" gradientUnits="userSpaceOnUse">
<stop stop-color="#1A7CBF"/>
<stop offset="1" stop-color="#25CF42"/>
</linearGradient>
</defs>
</svg>
