<svg width="134" height="41" viewBox="0 0 134 41" fill="none" xmlns="http://www.w3.org/2000/svg">
<path d="M10.4185 10.176C11.5065 10.176 12.5625 10.4 13.5225 10.784C14.4825 11.2 15.3465 11.744 16.0825 12.448C16.8185 13.152 17.3945 13.984 17.8425 14.944C18.2585 15.904 18.4825 16.96 18.4825 18.048C18.4825 19.072 18.2585 20.032 17.8745 20.928C17.4905 21.824 16.8825 22.88 16.0505 24.096L10.3225 32.416H7.5385L12.2745 25.568C12.0185 25.696 11.7305 25.792 11.4105 25.856C11.0905 25.92 10.6745 25.952 10.1625 25.952C9.0745 25.952 8.0505 25.76 7.1225 25.344C6.1625 24.96 5.3305 24.384 4.6265 23.68C3.9225 22.976 3.3465 22.112 2.9625 21.152C2.5465 20.192 2.3545 19.168 2.3545 18.048C2.3545 17.024 2.5465 16.032 2.9625 15.072C3.3465 14.144 3.9225 13.312 4.6585 12.576C5.3625 11.872 6.2265 11.296 7.2185 10.848C8.1785 10.4 9.2665 10.176 10.4185 10.176ZM10.4185 12.416C9.5865 12.416 8.8505 12.576 8.1465 12.864C7.4425 13.184 6.8665 13.6 6.3545 14.112C5.8425 14.624 5.4265 15.232 5.1705 15.936C4.8825 16.64 4.7545 17.344 4.7545 18.112C4.7545 18.88 4.8825 19.584 5.1705 20.288C5.4265 20.992 5.8105 21.568 6.3225 22.08C6.8345 22.592 7.4425 22.976 8.1465 23.264C8.8505 23.584 9.5865 23.712 10.4185 23.712C11.1865 23.712 11.9545 23.584 12.6585 23.264C13.3625 22.976 13.9385 22.592 14.4505 22.08C14.9625 21.568 15.3465 20.992 15.6345 20.288C15.9225 19.584 16.0825 18.88 16.0825 18.112C16.0825 17.344 15.9225 16.64 15.6665 15.936C15.3785 15.232 14.9945 14.624 14.4825 14.112C13.9705 13.6 13.3625 13.184 12.6585 12.864C11.9545 12.576 11.2185 12.416 10.4185 12.416ZM24.1533 32.736C23.6733 32.736 23.2573 32.576 22.9373 32.224C22.5853 31.904 22.4253 31.488 22.4253 31.008C22.4253 30.56 22.5853 30.144 22.9373 29.792C23.2573 29.472 23.6733 29.28 24.1533 29.28C24.6013 29.28 25.0173 29.472 25.3693 29.792C25.6893 30.144 25.8813 30.56 25.8813 31.008C25.8813 31.488 25.6893 31.904 25.3693 32.224C25.0173 32.576 24.6013 32.736 24.1533 32.736ZM24.1533 17.728C23.6733 17.728 23.2573 17.568 22.9373 17.216C22.5853 16.896 22.4253 16.48 22.4253 16C22.4253 15.552 22.5853 15.136 22.9373 14.784C23.2573 14.464 23.6733 14.272 24.1533 14.272C24.6013 14.272 25.0173 14.464 25.3693 14.784C25.6893 15.136 25.8813 15.552 25.8813 16C25.8813 16.48 25.6893 16.896 25.3693 17.216C25.0173 17.568 24.6013 17.728 24.1533 17.728ZM36.6393 12.416C35.4873 12.416 34.5273 12.576 33.7273 12.896C32.8953 13.216 31.9993 13.792 31.0073 14.592L29.6953 12.64C30.8473 11.776 31.9673 11.136 33.0553 10.752C34.1433 10.368 35.3273 10.176 36.6713 10.176C37.6313 10.176 38.5273 10.304 39.3593 10.56C40.1913 10.816 40.9593 11.2 41.5993 11.68C42.2393 12.192 42.7513 12.8 43.1353 13.568C43.5193 14.336 43.7113 15.168 43.7113 16.128C43.7113 17.344 43.4233 18.528 42.8793 19.68C42.3353 20.832 41.5353 22.016 40.5113 23.232C39.4873 24.448 38.2073 25.664 36.7353 26.944C35.2313 28.224 33.8553 29.312 32.6393 30.208H44.3193V32.416H28.8953V30.368C30.9753 28.832 32.7993 27.424 34.3353 26.144C35.8713 24.864 37.1513 23.68 38.1753 22.528C39.1993 21.376 39.9993 20.288 40.5113 19.264C41.0233 18.24 41.3113 17.248 41.3113 16.288C41.3113 15.616 41.1833 15.04 40.9273 14.56C40.6713 14.112 40.3513 13.696 39.9353 13.376C39.4873 13.056 39.0073 12.832 38.4313 12.672C37.8553 12.512 37.2473 12.416 36.6393 12.416ZM56.1053 32.672C54.9853 32.672 53.9293 32.48 52.9693 32.064C52.0093 31.68 51.1453 31.136 50.4413 30.432C49.7053 29.728 49.1293 28.896 48.7133 27.936C48.2653 26.976 48.0733 25.952 48.0733 24.8C48.0733 23.776 48.2333 22.816 48.6173 21.92C49.0013 21.024 49.6093 19.968 50.5052 18.72L56.2333 10.784H59.0173L54.3453 17.28C54.5373 17.184 54.7933 17.088 55.1133 17.024C55.4333 16.96 55.8493 16.928 56.3613 16.928C57.4493 16.928 58.4413 17.152 59.4013 17.536C60.3293 17.952 61.1613 18.528 61.8653 19.232C62.5693 19.936 63.1453 20.768 63.5613 21.728C63.9773 22.688 64.2013 23.712 64.2013 24.8C64.2013 25.856 63.9773 26.848 63.5933 27.776C63.1772 28.736 62.6013 29.568 61.8973 30.304C61.1613 31.04 60.2973 31.616 59.3373 32.032C58.3453 32.48 57.2573 32.672 56.1053 32.672ZM56.1373 30.432C56.9373 30.432 57.6733 30.304 58.3773 29.984C59.0493 29.696 59.6573 29.28 60.1693 28.768C60.6813 28.256 61.0653 27.648 61.3533 26.944C61.6413 26.24 61.8013 25.504 61.8013 24.736C61.8013 24 61.6413 23.296 61.3533 22.592C61.0653 21.888 60.6813 21.312 60.1693 20.8C59.6573 20.288 59.0813 19.904 58.3773 19.584C57.6733 19.296 56.9373 19.136 56.1373 19.136C55.3053 19.136 54.5693 19.296 53.8653 19.584C53.1613 19.904 52.5853 20.288 52.0733 20.8C51.5613 21.312 51.1773 21.888 50.8893 22.592C50.6013 23.296 50.4733 24 50.4733 24.736C50.4733 25.504 50.6013 26.24 50.8893 26.944C51.1453 27.648 51.5613 28.256 52.0733 28.768C52.5853 29.28 53.1613 29.696 53.8653 29.984C54.5693 30.304 55.3053 30.432 56.1373 30.432Z" fill="#AAAAAA"/>
<path d="M77 27L88 37L115 3" stroke="#1A7CBF" stroke-width="5" stroke-linecap="round"/>
<path d="M100 32L104 36L131 3" stroke="#1A7CBF" stroke-width="5" stroke-linecap="round"/>
</svg>
