<svg width="143" height="142" viewBox="0 0 143 142" fill="none" xmlns="http://www.w3.org/2000/svg">
<path d="M71.6232 75.9001H5.18577C5.09758 76.1512 5.04602 76.4207 5.04602 76.7099V138.441C5.04602 140.141 6.7095 141.818 8.4093 141.818H71.6232V75.9001ZM39.5586 90.7642C43.1996 90.7642 46.151 93.7162 46.151 97.3566C46.151 100.998 43.1996 103.95 39.5586 103.95C35.9176 103.95 32.9662 100.998 32.9662 97.3566C32.9662 93.7162 35.9176 90.7642 39.5586 90.7642ZM51.3327 122.702H27.6588C27.1479 122.702 26.7987 122.455 26.7987 121.945V119.325C26.7987 112.277 32.6041 106.563 39.6527 106.563C46.7 106.563 52.5067 112.277 52.5067 119.325V121.945C52.507 122.455 51.8431 122.702 51.3327 122.702Z" fill="url(#paint0_linear_233_118)"/>
<path d="M75.5782 75.9001V141.818H138.91C140.611 141.818 142.155 140.141 142.155 138.442V75.9001H75.5782ZM107.887 91.0176C111.528 91.0176 114.48 93.969 114.48 97.61C114.48 101.251 111.528 104.202 107.887 104.202C104.246 104.202 101.295 101.251 101.295 97.61C101.295 93.969 104.246 91.0176 107.887 91.0176ZM120.402 122.198C120.402 122.708 120.172 123.361 119.662 123.361H95.9876C95.4773 123.361 95.3536 122.708 95.3536 122.198V119.578C95.3536 112.53 100.83 106.816 107.878 106.816C114.925 106.816 120.402 112.53 120.402 119.578V122.198Z" fill="url(#paint1_linear_233_118)"/>
<path d="M75.5782 71.9451H142.155V8.82231C142.155 7.12222 140.611 6.0271 138.91 6.0271H76.7381C76.33 6.0271 75.9392 6.0936 75.5782 6.21255V71.9451ZM107.887 23.6354C111.528 23.6354 114.48 26.5868 114.48 30.2278C114.48 33.8688 111.528 36.8208 107.887 36.8208C104.246 36.8208 101.295 33.8688 101.295 30.2278C101.295 26.5868 104.246 23.6354 107.887 23.6354ZM95.3536 52.1958C95.3536 45.1472 100.83 39.4343 107.878 39.4343C114.925 39.4343 120.402 45.1472 120.402 52.1958V54.8152C120.402 55.3261 120.172 55.4653 119.662 55.4653H95.9876C95.4773 55.4653 95.3536 55.3261 95.3536 54.8152V52.1958Z" fill="url(#paint2_linear_233_118)"/>
<path d="M36.0336 11.1404C36.0336 12.1412 35.2221 12.9533 34.2207 12.9533C33.2199 12.9533 32.4078 12.1415 32.4078 11.1404V7.72144H7.30627V32.6411H11.3038C12.3052 32.6411 13.1167 33.4529 13.1167 34.454C13.1167 35.455 12.3052 36.2668 11.3038 36.2668H7.30686V61.1091H32.4084V57.3703C32.4084 56.3689 33.2202 55.5574 34.2213 55.5574C35.2227 55.5574 36.0342 56.3689 36.0342 57.3703V61.1091H61.1364V36.2668H57.5343C56.5335 36.2668 55.7214 35.455 55.7214 34.454C55.7214 33.4529 56.5332 32.6411 57.5343 32.6411H61.1364V7.72144H36.0342V11.1404H36.0336ZM46.0593 45.6333V48.0635C46.0593 48.5373 45.6746 48.9208 45.2021 48.9208H23.2432C22.7695 48.9208 22.3854 48.5373 22.3854 48.0635V45.6333C22.3854 39.096 27.6846 33.7962 34.2225 33.7962C40.7595 33.7962 46.0593 39.096 46.0593 45.6333ZM40.395 25.2565C40.395 28.6341 37.657 31.3722 34.2805 31.3722C30.9034 31.3722 28.1648 28.6341 28.1648 25.2565C28.1648 21.8794 30.9034 19.1419 34.2805 19.1419C37.657 19.1419 40.395 21.8794 40.395 25.2565Z" fill="url(#paint3_linear_233_118)"/>
<path d="M68.3868 65.2807V3.54897C68.3868 1.84771 67.0089 0.470459 65.3083 0.470459H3.13442C1.43315 0.470459 0.0559082 1.84771 0.0559082 3.54897V65.2807C0.0559082 66.9814 1.43315 68.3598 3.13442 68.3598H65.3085C67.0089 68.3595 68.3868 66.9811 68.3868 65.2807ZM64.7613 61.587C64.7613 63.3249 63.3518 64.734 61.6136 64.734H6.82847C5.09058 64.734 3.6814 63.3246 3.6814 61.587V7.24302C3.6814 5.50513 5.09087 4.09595 6.82847 4.09595H61.6136C63.3521 4.09595 64.7613 5.50542 64.7613 7.24302V61.587Z" fill="url(#paint4_linear_233_118)"/>
<defs>
<linearGradient id="paint0_linear_233_118" x1="38.3346" y1="75.9001" x2="38.3346" y2="141.818" gradientUnits="userSpaceOnUse">
<stop stop-color="#1A7CBF"/>
<stop offset="1" stop-color="#25CF42"/>
</linearGradient>
<linearGradient id="paint1_linear_233_118" x1="108.867" y1="75.9001" x2="108.867" y2="141.818" gradientUnits="userSpaceOnUse">
<stop stop-color="#1A7CBF"/>
<stop offset="1" stop-color="#25CF42"/>
</linearGradient>
<linearGradient id="paint2_linear_233_118" x1="108.867" y1="6.0271" x2="108.867" y2="71.9451" gradientUnits="userSpaceOnUse">
<stop stop-color="#1A7CBF"/>
<stop offset="1" stop-color="#25CF42"/>
</linearGradient>
<linearGradient id="paint3_linear_233_118" x1="34.2213" y1="7.72144" x2="34.2213" y2="61.1091" gradientUnits="userSpaceOnUse">
<stop stop-color="#1A7CBF"/>
<stop offset="1" stop-color="#25CF42"/>
</linearGradient>
<linearGradient id="paint4_linear_233_118" x1="34.2213" y1="0.470459" x2="34.2213" y2="68.3598" gradientUnits="userSpaceOnUse">
<stop stop-color="#1A7CBF"/>
<stop offset="1" stop-color="#25CF42"/>
</linearGradient>
</defs>
</svg>
