<svg width="24" height="24" viewBox="0 0 24 24" fill="none" xmlns="http://www.w3.org/2000/svg">
<path d="M20.4128 3.48006C19.3124 2.3722 18.0027 1.49403 16.5598 0.896594C15.1168 0.299161 13.5694 -0.0055777 12.0075 7.72832e-05C9.91955 0.00211728 7.86864 0.552375 6.06035 1.59574C4.25207 2.63911 2.74984 4.13897 1.70408 5.94509C0.658312 7.75124 0.105756 9.8003 0.101704 11.8869C0.097666 13.9737 0.642296 16.0248 1.68105 17.835L0 24L6.30394 22.35C8.04465 23.3178 10.0006 23.8337 11.9925 23.85C15.159 23.8502 18.1974 22.6002 20.4461 20.3724C22.6949 18.1448 23.9722 15.1194 24 11.955C23.9895 10.376 23.6671 8.81457 23.0516 7.36026C22.436 5.90595 21.5392 4.58736 20.4128 3.48006ZM12.0075 21.795C10.2329 21.7962 8.49082 21.3195 6.96435 20.415L6.60413 20.19L2.86679 21.18L3.85741 17.535L3.61726 17.16C2.34034 15.1001 1.86377 12.6435 2.27785 10.2559C2.69193 7.86824 3.96789 5.7153 5.86401 4.20491C7.76015 2.6945 10.1447 1.93156 12.566 2.0606C14.9873 2.18963 17.2773 3.2017 19.0019 4.90506C20.8871 6.74734 21.9662 9.26031 22.0038 11.895C21.98 14.5289 20.9163 17.0468 19.0442 18.9009C17.1722 20.7549 14.6432 21.7952 12.0075 21.795ZM17.4259 14.385C17.1257 14.235 15.6698 13.515 15.3996 13.425C15.1295 13.335 14.9193 13.275 14.7242 13.575C14.4306 13.9772 14.1148 14.3627 13.7786 14.73C13.6135 14.94 13.4334 14.955 13.1332 14.73C11.4217 14.0541 9.9958 12.8091 9.09569 11.205C8.78049 10.6801 9.39587 10.7101 9.96623 9.58506C10.0084 9.50391 10.0303 9.41391 10.0303 9.32256C10.0303 9.23121 10.0084 9.14121 9.96623 9.06006C9.96623 8.91004 9.29081 7.44005 9.05066 6.85505C8.81051 6.27005 8.57036 6.36005 8.37523 6.34505H7.78987C7.6382 6.34738 7.48878 6.38204 7.35159 6.44671C7.21441 6.51137 7.09262 6.60457 6.99437 6.72005C6.65759 7.04732 6.39491 7.44293 6.22403 7.88021C6.05315 8.31749 5.97804 8.78629 6.00375 9.25506C6.09786 10.3772 6.52072 11.4467 7.21951 12.33C8.49861 14.2437 10.2516 15.794 12.3077 16.83C13.3861 17.4591 14.6394 17.7222 15.8799 17.58C16.293 17.4981 16.6843 17.3303 17.0281 17.0873C17.3722 16.8444 17.6611 16.5318 17.8762 16.17C18.0755 15.7284 18.1382 15.2375 18.0563 14.76C17.9212 14.61 17.7261 14.535 17.4259 14.385Z" fill="black"/>
</svg>
