<svg width="164" height="78" viewBox="0 0 164 78" fill="none" xmlns="http://www.w3.org/2000/svg">
<g filter="url(#filter0_d_56_303)">
<path d="M117.14 33.147H105.845C107.767 24.1157 115.618 19.9363 119.302 18.9755H147.178C152.946 15.5167 149.581 11.4493 147.178 9.84804C137.165 10.0082 116.082 10.2324 111.853 9.84804C107.623 9.46373 103.522 3.12255 102 0H152.465C173.228 12.1059 161.116 25.0605 152.465 30.0245H144.054L164 49H145.256C145.256 49 133.336 39.2961 128.915 33.147C124.493 26.998 119.222 30.585 117.14 33.147Z" fill="url(#paint0_linear_56_303)"/>
</g>
<path d="M16.024 56C15.304 56 14.632 55.976 14.056 55.904C13.48 55.832 12.928 55.712 12.448 55.544C11.944 55.4 11.488 55.184 11.08 54.944C10.672 54.704 10.288 54.392 9.928 54.032C9.328 53.48 8.92 52.76 8.68 51.872C8.44 50.984 8.32 50.048 8.32 49.064V41.216H11.68V48.656C11.68 49.376 11.752 50 11.896 50.504C12.04 51.008 12.304 51.416 12.688 51.728C13.096 52.088 13.624 52.328 14.248 52.448C14.872 52.592 15.544 52.64 16.264 52.64H18.184V41.216H21.544V56H16.024ZM15.04 39.08C14.512 39.08 14.032 38.936 13.648 38.624C13.264 38.336 13.072 37.88 13.072 37.28C13.072 36.752 13.24 36.344 13.624 36.008C14.008 35.672 14.464 35.504 15.04 35.504C15.592 35.504 16.048 35.672 16.432 36.008C16.816 36.344 17.008 36.752 17.008 37.28C17.008 37.88 16.792 38.336 16.408 38.624C16.024 38.936 15.568 39.08 15.04 39.08ZM26.1278 33.536H29.4878V49.64H32.5598V53H26.1278V33.536ZM32.0781 49.64H35.2941C34.9341 49.184 34.6461 48.68 34.4541 48.104C34.2381 47.552 34.1421 46.928 34.1421 46.232C34.1421 45.176 34.3341 44.24 34.7181 43.4C35.1021 42.584 35.6541 41.864 36.3741 41.288C37.0701 40.712 37.9101 40.256 38.9181 39.944C39.9021 39.656 41.0061 39.488 42.2061 39.488H46.1661V49.64H48.3741V53H32.0781V49.64ZM37.5021 46.232C37.5021 46.976 37.6461 47.624 37.9821 48.2C38.3181 48.776 38.7501 49.256 39.3261 49.64H42.8061V42.848H41.3901C40.9101 42.848 40.4301 42.92 39.9501 43.064C39.4701 43.208 39.0621 43.424 38.7021 43.712C38.3421 44 38.0541 44.36 37.8381 44.792C37.5981 45.224 37.5021 45.704 37.5021 46.232ZM43.8381 37.448C43.3101 37.448 42.8781 37.304 42.5181 37.016C42.1341 36.728 41.9661 36.296 41.9661 35.72C41.9661 35.216 42.1341 34.808 42.4941 34.496C42.8541 34.184 43.3101 34.016 43.8381 34.016C44.3661 34.016 44.8221 34.184 45.1821 34.496C45.5181 34.808 45.7101 35.216 45.7101 35.72C45.7101 36.296 45.5181 36.728 45.1581 37.016C44.7741 37.304 44.3421 37.448 43.8381 37.448ZM38.6301 37.448C38.1021 37.448 37.6701 37.304 37.3101 37.016C36.9261 36.728 36.7581 36.296 36.7581 35.72C36.7581 35.216 36.9261 34.808 37.2861 34.496C37.6461 34.184 38.1021 34.016 38.6301 34.016C39.1581 34.016 39.5901 34.184 39.9501 34.496C40.3101 34.808 40.5021 35.216 40.5021 35.72C40.5021 36.296 40.3101 36.728 39.9501 37.016C39.5661 37.304 39.1341 37.448 38.6301 37.448ZM47.8984 49.64H52.9144V39.488H56.2744V53H47.8984V49.64ZM51.8584 37.448C51.3304 37.448 50.8984 37.304 50.5384 37.016C50.1544 36.728 49.9864 36.296 49.9864 35.72C49.9864 35.216 50.1544 34.808 50.5144 34.496C50.8744 34.184 51.3304 34.016 51.8584 34.016C52.3864 34.016 52.8184 34.184 53.1784 34.496C53.5384 34.808 53.7304 35.216 53.7304 35.72C53.7304 36.296 53.5384 36.728 53.1784 37.016C52.7944 37.304 52.3624 37.448 51.8584 37.448ZM57.0664 37.448C56.5384 37.448 56.1064 37.304 55.7464 37.016C55.3624 36.728 55.1944 36.296 55.1944 35.72C55.1944 35.216 55.3624 34.808 55.7224 34.496C56.0824 34.184 56.5384 34.016 57.0664 34.016C57.5944 34.016 58.0504 34.184 58.4104 34.496C58.7464 34.808 58.9384 35.216 58.9384 35.72C58.9384 36.296 58.7464 36.728 58.3864 37.016C58.0024 37.304 57.5704 37.448 57.0664 37.448ZM59.3903 49.64H66.2303C66.7583 49.64 67.2623 49.592 67.7423 49.448C68.1983 49.304 68.6063 49.112 68.9423 48.824C69.2543 48.56 69.4943 48.224 69.6863 47.816C69.8543 47.432 69.9503 46.928 69.9503 46.328V31.76H74.8703V35.12H73.3103V46.208C73.3103 47.216 73.1423 48.152 72.8543 49.064C72.5663 49.976 72.1103 50.72 71.5103 51.272C70.8143 51.896 69.9743 52.352 68.9663 52.616C67.9583 52.88 66.8303 53 65.5343 53H59.7983L59.3903 49.64ZM62.7983 35.792H66.1583V48.44H62.7983V35.792ZM79.0966 33.536H82.4566V53H79.0966V33.536ZM94.1093 58.28C93.7733 58.28 93.4613 58.28 93.1733 58.232C92.8613 58.184 92.5973 58.136 92.4053 58.064L92.1653 54.704C92.4773 54.8 92.7653 54.848 93.0053 54.872C93.2453 54.92 93.4853 54.92 93.7493 54.92C94.4213 54.92 94.8773 54.752 95.1413 54.368C95.4053 54.008 95.5493 53.408 95.5493 52.568V39.488H98.9093V49.64H101.501V53H98.8853C98.7893 54.872 98.3573 56.216 97.6133 57.032C96.8453 57.872 95.6933 58.28 94.1093 58.28ZM97.1573 37.448C96.6293 37.448 96.1493 37.304 95.7653 36.992C95.3813 36.704 95.1893 36.248 95.1893 35.648C95.1893 35.12 95.3573 34.712 95.7413 34.376C96.1253 34.04 96.5813 33.872 97.1573 33.872C97.7093 33.872 98.1653 34.04 98.5493 34.376C98.9333 34.712 99.1253 35.12 99.1253 35.648C99.1253 36.248 98.9093 36.704 98.5253 36.992C98.1413 37.304 97.6853 37.448 97.1573 37.448ZM101.031 49.64H103.359C103.287 49.4 103.239 49.16 103.215 48.896C103.191 48.656 103.191 48.392 103.191 48.104C103.191 47.096 103.359 46.136 103.743 45.248C104.127 44.36 104.631 43.592 105.279 42.92C105.927 42.248 106.695 41.72 107.559 41.336C108.423 40.952 109.359 40.76 110.367 40.76C111.375 40.76 112.311 40.952 113.199 41.336C114.087 41.72 114.855 42.224 115.527 42.872C116.199 43.544 116.703 44.312 117.087 45.2C117.471 46.112 117.663 47.072 117.663 48.104C117.663 49.136 117.447 50.096 117.063 50.96C116.679 51.824 116.151 52.592 115.479 53.216C114.807 53.864 114.015 54.368 113.151 54.728C112.263 55.112 111.327 55.28 110.367 55.28C109.335 55.28 108.375 55.088 107.487 54.68C106.575 54.272 105.807 53.72 105.135 53H101.031V49.64ZM110.367 51.92C110.895 51.92 111.423 51.824 111.903 51.632C112.383 51.44 112.791 51.176 113.151 50.84C113.511 50.504 113.799 50.096 113.991 49.616C114.183 49.136 114.303 48.632 114.303 48.056C114.303 47.504 114.207 46.976 114.015 46.496C113.823 46.016 113.535 45.608 113.199 45.248C112.839 44.912 112.431 44.624 111.951 44.432C111.471 44.24 110.943 44.12 110.367 44.12C109.791 44.12 109.287 44.24 108.831 44.432C108.351 44.648 107.967 44.936 107.631 45.272C107.295 45.632 107.031 46.04 106.839 46.52C106.647 47 106.551 47.528 106.551 48.056C106.551 48.608 106.647 49.112 106.839 49.592C107.031 50.072 107.295 50.48 107.631 50.816C107.967 51.152 108.375 51.44 108.855 51.632C109.311 51.824 109.815 51.92 110.367 51.92ZM121.227 58.28C120.891 58.28 120.579 58.28 120.291 58.232C119.979 58.184 119.715 58.136 119.523 58.064L119.283 54.704C119.595 54.8 119.883 54.848 120.123 54.872C120.363 54.92 120.603 54.92 120.867 54.92C121.539 54.92 121.995 54.752 122.259 54.368C122.523 54.008 122.667 53.408 122.667 52.568V39.488H126.027V52.088C126.027 53.192 125.931 54.128 125.763 54.896C125.571 55.664 125.307 56.312 124.923 56.816C124.539 57.32 124.035 57.68 123.435 57.92C122.811 58.16 122.09 58.28 121.227 58.28Z" fill="#333333"/>
<path d="M26.0725 73.4C25.1059 73.4 24.3525 73.18 23.8125 72.74C23.2725 72.3 23.0025 71.6867 23.0025 70.9C23.0025 70.5933 23.0425 70.27 23.1225 69.93C23.2092 69.5833 23.3259 69.24 23.4725 68.9L24.0925 69.09C23.9659 69.35 23.8625 69.6233 23.7825 69.91C23.7025 70.19 23.6625 70.4567 23.6625 70.71C23.6625 71.2767 23.8459 71.7167 24.2125 72.03C24.5859 72.3433 25.1059 72.5 25.7725 72.5H26.3725C26.7725 72.5 27.1292 72.4567 27.4425 72.37C27.7559 72.29 28.0192 72.18 28.2325 72.04C28.4525 71.9067 28.6192 71.7567 28.7325 71.59C28.8459 71.4233 28.9025 71.2533 28.9025 71.08V71.06L26.7425 70.58V69.76H27.1525C27.5459 69.76 27.8359 69.7033 28.0225 69.59C28.2092 69.47 28.3025 69.2467 28.3025 68.92C28.3025 68.8 28.2925 68.6467 28.2725 68.46C28.2592 68.2733 28.2259 68.0267 28.1725 67.72L28.0325 66.89L28.7325 66.78L28.8525 67.61C28.8992 67.9367 28.9325 68.2033 28.9525 68.41C28.9725 68.6167 28.9825 68.7867 28.9825 68.92C28.9825 69.46 28.7859 69.8567 28.3925 70.11V70.15L28.9525 70.3C29.3592 70.4067 29.5625 70.6667 29.5625 71.08C29.5625 71.3933 29.4825 71.69 29.3225 71.97C29.1692 72.25 28.9425 72.4967 28.6425 72.71C28.3425 72.9233 27.9759 73.09 27.5425 73.21C27.1092 73.3367 26.6192 73.4 26.0725 73.4ZM28.2125 65.59C28.0792 65.59 27.9725 65.5533 27.8925 65.48C27.8125 65.4 27.7725 65.2733 27.7725 65.1C27.7725 64.9267 27.8125 64.8033 27.8925 64.73C27.9725 64.65 28.0792 64.61 28.2125 64.61H28.3225C28.4559 64.61 28.5625 64.65 28.6425 64.73C28.7225 64.8033 28.7625 64.9267 28.7625 65.1C28.7625 65.2733 28.7225 65.4 28.6425 65.48C28.5625 65.5533 28.4559 65.59 28.3225 65.59H28.2125ZM30.1984 72.54H30.8884C31.6951 72.54 32.2917 72.3633 32.6784 72.01C33.0651 71.6567 33.2584 71.1633 33.2584 70.53V70.31H33.2084C33.1151 70.53 32.9584 70.7033 32.7384 70.83C32.5251 70.9567 32.2717 71.02 31.9784 71.02C31.4451 71.02 31.0317 70.88 30.7384 70.6C30.4451 70.3133 30.2984 69.9133 30.2984 69.4C30.2984 69.1 30.3417 68.8167 30.4284 68.55C30.5217 68.2833 30.6484 68.0533 30.8084 67.86C30.9684 67.66 31.1584 67.5033 31.3784 67.39C31.6051 67.27 31.8517 67.21 32.1184 67.21C32.6917 67.21 33.1417 67.4567 33.4684 67.95C33.7951 68.4433 33.9584 69.1367 33.9584 70.03C33.9584 71.09 33.7017 71.9167 33.1884 72.51C32.6817 73.1033 31.9151 73.4 30.8884 73.4H30.1984V72.54ZM32.1784 70.14C32.4651 70.14 32.6917 70.1167 32.8584 70.07C33.0317 70.0167 33.1651 69.9367 33.2584 69.83C33.2584 69.29 33.1517 68.8633 32.9384 68.55C32.7251 68.23 32.4317 68.07 32.0584 68.07C31.7184 68.07 31.4551 68.1833 31.2684 68.41C31.0884 68.6367 30.9984 68.9333 30.9984 69.3C30.9984 69.5933 31.0751 69.8067 31.2284 69.94C31.3884 70.0733 31.6384 70.14 31.9784 70.14H32.1784ZM33.8092 72.54H34.1792C34.5458 72.54 34.8458 72.4867 35.0792 72.38C35.3125 72.2733 35.4958 72.13 35.6292 71.95C35.7625 71.7767 35.8558 71.57 35.9092 71.33C35.9625 71.0967 35.9892 70.85 35.9892 70.59C35.9892 70.3967 35.9792 70.1967 35.9592 69.99C35.9392 69.7767 35.9125 69.5733 35.8792 69.38L35.6692 68.25L36.3692 68.11L36.4892 68.83L38.2492 68.53V67.71H38.9492V69.44C38.9492 69.6933 39.0192 69.8733 39.1592 69.98C39.2992 70.0867 39.5158 70.14 39.8092 70.14H40.1592V70.8L39.9592 71H39.9392C39.6325 71 39.3725 70.9733 39.1592 70.92C38.9458 70.86 38.7692 70.77 38.6292 70.65C38.4958 70.5233 38.3992 70.36 38.3392 70.16C38.2792 69.96 38.2492 69.72 38.2492 69.44V69.36L36.6092 69.64C36.6225 69.8067 36.6325 69.97 36.6392 70.13C36.6525 70.29 36.6592 70.45 36.6592 70.61C36.6592 70.9767 36.6192 71.3267 36.5392 71.66C36.4592 72 36.3225 72.2967 36.1292 72.55C35.9425 72.81 35.6892 73.0167 35.3692 73.17C35.0558 73.3233 34.6592 73.4 34.1792 73.4H33.8092V72.54ZM39.1592 66.51C39.0258 66.51 38.9192 66.4733 38.8392 66.4C38.7592 66.32 38.7192 66.1933 38.7192 66.02C38.7192 65.8467 38.7592 65.7233 38.8392 65.65C38.9192 65.57 39.0258 65.53 39.1592 65.53H39.2692C39.4025 65.53 39.5092 65.57 39.5892 65.65C39.6692 65.7233 39.7092 65.8467 39.7092 66.02C39.7092 66.1933 39.6692 66.32 39.5892 66.4C39.5092 66.4733 39.4025 66.51 39.2692 66.51H39.1592ZM37.8692 66.51C37.7358 66.51 37.6292 66.4733 37.5492 66.4C37.4692 66.32 37.4292 66.1933 37.4292 66.02C37.4292 65.8467 37.4692 65.7233 37.5492 65.65C37.6292 65.57 37.7358 65.53 37.8692 65.53H37.9792C38.1125 65.53 38.2192 65.57 38.2992 65.65C38.3792 65.7233 38.4192 65.8467 38.4192 66.02C38.4192 66.1933 38.3792 66.32 38.2992 66.4C38.2192 66.4733 38.1125 66.51 37.9792 66.51H37.8692ZM39.9611 70.34L40.1611 70.14H41.0811C41.4211 70.14 41.6578 70.1067 41.7911 70.04C41.9311 69.9667 42.0011 69.8433 42.0011 69.67C42.0011 69.6167 41.9911 69.5633 41.9711 69.51C41.9578 69.45 41.9311 69.3867 41.8911 69.32C41.8511 69.2467 41.7978 69.1633 41.7311 69.07C41.6645 68.9767 41.5778 68.8633 41.4711 68.73L40.2611 67.22V65.48L44.5811 63.49V64.4L40.6111 66.24V66.29L42.8311 69.05C43.0045 69.27 43.1611 69.45 43.3011 69.59C43.4478 69.73 43.5878 69.84 43.7211 69.92C43.8611 70 44.0078 70.0567 44.1611 70.09C44.3145 70.1233 44.4878 70.14 44.6811 70.14V70.8L44.4811 71C44.2411 71 44.0311 70.9833 43.8511 70.95C43.6778 70.9167 43.5145 70.8567 43.3611 70.77C43.2145 70.6833 43.0711 70.5633 42.9311 70.41C42.7911 70.2567 42.6378 70.0633 42.4711 69.83L42.3011 69.59L42.2611 69.61C42.2678 69.6567 42.2711 69.7033 42.2711 69.75C42.2778 69.79 42.2811 69.83 42.2811 69.87C42.2811 70.2233 42.1711 70.5 41.9511 70.7C41.7378 70.9 41.4478 71 41.0811 71H39.9611V70.34ZM44.4826 70.34L44.6826 70.14H44.9726C45.2926 70.14 45.5226 70.0667 45.6626 69.92C45.8093 69.7733 45.8826 69.54 45.8826 69.22V63.6H46.6226V69.22C46.6226 69.8333 46.4893 70.2833 46.2226 70.57C45.9626 70.8567 45.546 71 44.9726 71H44.4826V70.34ZM48.0382 70.18L49.9182 68.35L47.3482 65.43L47.8882 64.96L50.4382 67.85L50.4882 67.8C50.6215 67.6733 50.7315 67.5533 50.8182 67.44C50.9048 67.3267 50.9715 67.21 51.0182 67.09C51.0715 66.9633 51.1082 66.83 51.1282 66.69C51.1482 66.5433 51.1582 66.3733 51.1582 66.18V63.6H51.8982V66.18C51.8982 66.42 51.8848 66.63 51.8582 66.81C51.8315 66.99 51.7848 67.1567 51.7182 67.31C51.6515 67.4633 51.5582 67.6167 51.4382 67.77C51.3248 67.9167 51.1782 68.08 50.9982 68.26L50.8982 68.36L51.5082 69.05C51.7282 69.3033 51.8815 69.51 51.9682 69.67C52.0548 69.83 52.0982 69.9867 52.0982 70.14C52.0982 70.36 52.0182 70.56 51.8582 70.74C51.7048 70.9133 51.4682 71 51.1482 71H48.0382V70.18ZM50.3682 68.86L49.0682 70.1L49.0782 70.14H51.5082L50.3682 68.86ZM53.2939 63.6H54.0339V71H53.2939V63.6ZM60.4636 73.4C59.5436 73.4 58.8269 73.18 58.3136 72.74C57.8002 72.3 57.5436 71.6867 57.5436 70.9C57.5436 70.5933 57.5836 70.27 57.6636 69.93C57.7502 69.5833 57.8669 69.24 58.0136 68.9L58.6336 69.09C58.5069 69.35 58.4036 69.6233 58.3236 69.91C58.2436 70.19 58.2036 70.4567 58.2036 70.71C58.2036 71.2767 58.3736 71.7167 58.7136 72.03C59.0602 72.3433 59.5436 72.5 60.1636 72.5H60.7636C61.5302 72.5 62.0969 72.38 62.4636 72.14C62.8369 71.9 63.0502 71.52 63.1036 71H61.8836C61.3502 71 60.9369 70.86 60.6436 70.58C60.3502 70.3 60.2036 69.9067 60.2036 69.4C60.2036 69.1 60.2469 68.8167 60.3336 68.55C60.4269 68.2833 60.5536 68.0533 60.7136 67.86C60.8736 67.66 61.0636 67.5033 61.2836 67.39C61.5102 67.27 61.7569 67.21 62.0236 67.21C62.5702 67.21 62.9969 67.4667 63.3036 67.98C63.6169 68.4867 63.7836 69.2067 63.8036 70.14H64.2636V70.8L64.0636 71H63.7636C63.6569 71.82 63.3369 72.4233 62.8036 72.81C62.2769 73.2033 61.4969 73.4 60.4636 73.4ZM60.9036 69.3C60.9036 69.5933 60.9802 69.8067 61.1336 69.94C61.2936 70.0733 61.5436 70.14 61.8836 70.14H63.1136V69.83C63.1136 69.29 63.0102 68.8633 62.8036 68.55C62.6036 68.23 62.3236 68.07 61.9636 68.07C61.6236 68.07 61.3602 68.1833 61.1736 68.41C60.9936 68.6367 60.9036 68.9333 60.9036 69.3ZM62.5836 66.01C62.4502 66.01 62.3436 65.9733 62.2636 65.9C62.1836 65.82 62.1436 65.6933 62.1436 65.52C62.1436 65.3467 62.1836 65.2233 62.2636 65.15C62.3436 65.07 62.4502 65.03 62.5836 65.03H62.6936C62.8269 65.03 62.9336 65.07 63.0136 65.15C63.0936 65.2233 63.1336 65.3467 63.1336 65.52C63.1336 65.6933 63.0936 65.82 63.0136 65.9C62.9336 65.9733 62.8269 66.01 62.6936 66.01H62.5836ZM61.2936 66.01C61.1602 66.01 61.0536 65.9733 60.9736 65.9C60.8936 65.82 60.8536 65.6933 60.8536 65.52C60.8536 65.3467 60.8936 65.2233 60.9736 65.15C61.0536 65.07 61.1602 65.03 61.2936 65.03H61.4036C61.5369 65.03 61.6436 65.07 61.7236 65.15C61.8036 65.2233 61.8436 65.3467 61.8436 65.52C61.8436 65.6933 61.8036 65.82 61.7236 65.9C61.6436 65.9733 61.5369 66.01 61.4036 66.01H61.2936ZM64.0627 70.34L64.2627 70.14H64.4127C64.8527 70.14 65.1694 70.0867 65.3627 69.98C65.5627 69.8667 65.6627 69.6533 65.6627 69.34C65.6627 69.22 65.6527 69.0667 65.6327 68.88C65.6194 68.6933 65.586 68.4467 65.5327 68.14L65.3927 67.31L66.0927 67.2L66.2127 68.03C66.2594 68.3567 66.2927 68.6233 66.3127 68.83C66.3327 69.0367 66.3427 69.2067 66.3427 69.34C66.3427 69.9 66.176 70.3167 65.8427 70.59C65.516 70.8633 65.0394 71 64.4127 71H64.0627V70.34ZM66.2327 73C66.0994 73 65.9927 72.96 65.9127 72.88C65.8327 72.8067 65.7927 72.6833 65.7927 72.51C65.7927 72.3367 65.8327 72.21 65.9127 72.13C65.9927 72.0567 66.0994 72.02 66.2327 72.02H66.3427C66.476 72.02 66.5827 72.0567 66.6627 72.13C66.7427 72.21 66.7827 72.3367 66.7827 72.51C66.7827 72.6833 66.7427 72.8067 66.6627 72.88C66.5827 72.96 66.476 73 66.3427 73H66.2327ZM64.9427 73C64.8094 73 64.7027 72.96 64.6227 72.88C64.5427 72.8067 64.5027 72.6833 64.5027 72.51C64.5027 72.3367 64.5427 72.21 64.6227 72.13C64.7027 72.0567 64.8094 72.02 64.9427 72.02H65.0527C65.186 72.02 65.2927 72.0567 65.3727 72.13C65.4527 72.21 65.4927 72.3367 65.4927 72.51C65.4927 72.6833 65.4527 72.8067 65.3727 72.88C65.2927 72.96 65.186 73 65.0527 73H64.9427ZM67.2296 72.54H67.7596C68.4863 72.54 69.0463 72.4033 69.4396 72.13C69.8396 71.8633 70.0863 71.4867 70.1796 71H69.0096C68.4763 71 68.063 70.86 67.7696 70.58C67.4763 70.3 67.3296 69.9067 67.3296 69.4C67.3296 69.1 67.373 68.8167 67.4596 68.55C67.553 68.2833 67.6796 68.0533 67.8396 67.86C67.9996 67.66 68.1896 67.5033 68.4096 67.39C68.6363 67.27 68.883 67.21 69.1496 67.21C69.703 67.21 70.1363 67.4567 70.4496 67.95C70.7696 68.4433 70.9296 69.1367 70.9296 70.03V70.14H71.3896V70.8L71.1896 71H70.8396C70.693 71.7667 70.363 72.3567 69.8496 72.77C69.343 73.19 68.6463 73.4 67.7596 73.4H67.2296V72.54ZM68.0296 69.3C68.0296 69.5933 68.1063 69.8067 68.2596 69.94C68.4196 70.0733 68.6696 70.14 69.0096 70.14H70.2296V69.83C70.2296 69.29 70.1263 68.8633 69.9196 68.55C69.7196 68.23 69.443 68.07 69.0896 68.07C68.7496 68.07 68.4863 68.1833 68.2996 68.41C68.1196 68.6367 68.0296 68.9333 68.0296 69.3ZM71.1916 70.34L71.3916 70.14H71.7416C71.8683 70.14 71.9783 70.13 72.0716 70.11C72.1716 70.0833 72.2616 70.04 72.3416 69.98C72.4216 69.92 72.4949 69.84 72.5616 69.74C72.6349 69.64 72.7116 69.51 72.7916 69.35L73.2216 68.51L73.7916 68.8L73.2616 69.8L73.4016 69.89C73.6149 70.03 73.8216 70.1267 74.0216 70.18C74.2283 70.2333 74.4283 70.26 74.6216 70.26C74.9349 70.26 75.1649 70.1867 75.3116 70.04C75.4649 69.8933 75.5416 69.6433 75.5416 69.29V68.51H76.2416V69.29C76.2416 69.65 76.2916 69.9033 76.3916 70.05C76.4916 70.19 76.6583 70.26 76.8916 70.26H77.1216C77.3549 70.26 77.5183 70.19 77.6116 70.05C77.7116 69.9033 77.7616 69.65 77.7616 69.29V68.11H78.4616V69.29C78.4616 69.8567 78.7449 70.14 79.3116 70.14H79.6616V70.8L79.4616 71C79.0216 71 78.6749 70.93 78.4216 70.79C78.1683 70.6433 77.9916 70.42 77.8916 70.12H77.8416C77.8016 70.4933 77.7016 70.7533 77.5416 70.9C77.3816 71.0467 77.1483 71.12 76.8416 71.12C76.1549 71.12 75.7516 70.7867 75.6316 70.12H75.5816C75.5149 70.44 75.3849 70.6867 75.1916 70.86C75.0049 71.0333 74.7549 71.12 74.4416 71.12C74.0483 71.12 73.6083 70.9633 73.1216 70.65L72.8116 70.45C72.6183 70.6633 72.3983 70.81 72.1516 70.89C71.9049 70.9633 71.5849 71 71.1916 71V70.34ZM79.4631 70.34L79.6631 70.14H80.0131C80.5798 70.14 80.8631 69.8567 80.8631 69.29V67.71H81.5631V69.29C81.5631 69.8567 81.8464 70.14 82.4131 70.14H82.7631V70.8L82.5631 71C81.6431 71 81.1031 70.6733 80.9431 70.02H80.8931C80.8198 70.3867 80.6764 70.6433 80.4631 70.79C80.2498 70.93 79.9164 71 79.4631 71V70.34ZM81.7731 66.51C81.6398 66.51 81.5331 66.4733 81.4531 66.4C81.3731 66.32 81.3331 66.1933 81.3331 66.02C81.3331 65.8467 81.3731 65.7233 81.4531 65.65C81.5331 65.57 81.6398 65.53 81.7731 65.53H81.8831C82.0164 65.53 82.1231 65.57 82.2031 65.65C82.2831 65.7233 82.3231 65.8467 82.3231 66.02C82.3231 66.1933 82.2831 66.32 82.2031 66.4C82.1231 66.4733 82.0164 66.51 81.8831 66.51H81.7731ZM80.4831 66.51C80.3498 66.51 80.2431 66.4733 80.1631 66.4C80.0831 66.32 80.0431 66.1933 80.0431 66.02C80.0431 65.8467 80.0831 65.7233 80.1631 65.65C80.2431 65.57 80.3498 65.53 80.4831 65.53H80.5931C80.7264 65.53 80.8331 65.57 80.9131 65.65C80.9931 65.7233 81.0331 65.8467 81.0331 66.02C81.0331 66.1933 80.9931 66.32 80.9131 66.4C80.8331 66.4733 80.7264 66.51 80.5931 66.51H80.4831ZM82.5588 70.34L82.7588 70.14H83.0488C83.3688 70.14 83.5988 70.0667 83.7388 69.92C83.8855 69.7733 83.9588 69.54 83.9588 69.22V63.6H84.6988V69.22C84.6988 69.8333 84.5655 70.2833 84.2988 70.57C84.0388 70.8567 83.6221 71 83.0488 71H82.5588V70.34ZM86.1943 63.6H86.9343V71H86.1943V63.6ZM88.0207 72.54H88.7107C89.5173 72.54 90.114 72.3633 90.5007 72.01C90.8873 71.6567 91.0807 71.1633 91.0807 70.53V70.31H91.0307C90.9373 70.53 90.7807 70.7033 90.5607 70.83C90.3473 70.9567 90.094 71.02 89.8007 71.02C89.2673 71.02 88.854 70.88 88.5607 70.6C88.2673 70.3133 88.1207 69.9133 88.1207 69.4C88.1207 69.1 88.164 68.8167 88.2507 68.55C88.344 68.2833 88.4707 68.0533 88.6307 67.86C88.7907 67.66 88.9807 67.5033 89.2007 67.39C89.4273 67.27 89.674 67.21 89.9407 67.21C90.514 67.21 90.964 67.4567 91.2907 67.95C91.6173 68.4433 91.7807 69.1367 91.7807 70.03C91.7807 71.09 91.524 71.9167 91.0107 72.51C90.504 73.1033 89.7373 73.4 88.7107 73.4H88.0207V72.54ZM90.0007 70.14C90.2873 70.14 90.514 70.1167 90.6807 70.07C90.854 70.0167 90.9873 69.9367 91.0807 69.83C91.0807 69.29 90.974 68.8633 90.7607 68.55C90.5473 68.23 90.254 68.07 89.8807 68.07C89.5407 68.07 89.2773 68.1833 89.0907 68.41C88.9107 68.6367 88.8207 68.9333 88.8207 69.3C88.8207 69.5933 88.8973 69.8067 89.0507 69.94C89.2107 70.0733 89.4607 70.14 89.8007 70.14H90.0007ZM99.1547 71C98.8481 71 98.5881 70.9767 98.3747 70.93C98.1681 70.8767 97.9981 70.7933 97.8647 70.68C97.7381 70.56 97.6447 70.41 97.5847 70.23C97.5247 70.0433 97.4947 69.8133 97.4947 69.54V69.37H97.4447C97.3514 69.67 97.1914 69.8967 96.9647 70.05C96.7447 70.1967 96.4781 70.27 96.1647 70.27C95.7181 70.27 95.3681 70.15 95.1147 69.91C94.8681 69.67 94.7447 69.33 94.7447 68.89C94.7447 68.7033 94.7747 68.53 94.8347 68.37C94.8947 68.2033 94.9914 68.0433 95.1247 67.89C95.2647 67.73 95.4414 67.5733 95.6547 67.42C95.8681 67.26 96.1281 67.0933 96.4347 66.92L97.4447 66.34V65.84H98.1447V69.44C98.1447 69.7133 98.2147 69.9 98.3547 70C98.4947 70.0933 98.7114 70.14 99.0047 70.14H99.3547V70.8L99.1547 71ZM96.3147 69.41C96.7214 69.41 97.0114 69.3533 97.1847 69.24C97.3581 69.12 97.4447 68.91 97.4447 68.61V67.15L96.4347 67.69C96.0814 67.8833 95.8281 68.0633 95.6747 68.23C95.5214 68.39 95.4447 68.5767 95.4447 68.79C95.4447 69.0033 95.5081 69.16 95.6347 69.26C95.7681 69.36 95.9947 69.41 96.3147 69.41ZM97.7647 65.01C97.6314 65.01 97.5247 64.9733 97.4447 64.9C97.3647 64.82 97.3247 64.6933 97.3247 64.52C97.3247 64.3467 97.3647 64.2233 97.4447 64.15C97.5247 64.07 97.6314 64.03 97.7647 64.03H97.8747C98.0081 64.03 98.1147 64.07 98.1947 64.15C98.2747 64.2233 98.3147 64.3467 98.3147 64.52C98.3147 64.6933 98.2747 64.82 98.1947 64.9C98.1147 64.9733 98.0081 65.01 97.8747 65.01H97.7647ZM96.4747 65.01C96.3414 65.01 96.2347 64.9733 96.1547 64.9C96.0747 64.82 96.0347 64.6933 96.0347 64.52C96.0347 64.3467 96.0747 64.2233 96.1547 64.15C96.2347 64.07 96.3414 64.03 96.4747 64.03H96.5847C96.7181 64.03 96.8247 64.07 96.9047 64.15C96.9847 64.2233 97.0247 64.3467 97.0247 64.52C97.0247 64.6933 96.9847 64.82 96.9047 64.9C96.8247 64.9733 96.7181 65.01 96.5847 65.01H96.4747ZM99.1506 70.34L99.3506 70.14H99.6906C99.9839 70.14 100.254 70.13 100.501 70.11C100.754 70.09 101.011 70.0533 101.271 70C101.531 69.94 101.804 69.8567 102.091 69.75C102.384 69.6433 102.714 69.5033 103.081 69.33L104.001 68.89V68.85L102.521 68.52L100.451 68.01V68.87H99.7506V68.1C99.7506 67.82 99.8273 67.61 99.9806 67.47C100.141 67.3233 100.341 67.25 100.581 67.25C100.654 67.25 100.741 67.26 100.841 67.28C100.947 67.2933 101.111 67.3267 101.331 67.38L103.771 68.01C104.137 68.1033 104.444 68.17 104.691 68.21C104.937 68.2433 105.151 68.26 105.331 68.26H105.491V69.12H104.731V69.24C104.731 69.5733 104.804 69.8067 104.951 69.94C105.097 70.0733 105.324 70.14 105.631 70.14H105.981V70.8L105.781 71C105.487 71 105.237 70.9733 105.031 70.92C104.824 70.8667 104.654 70.78 104.521 70.66C104.394 70.5333 104.297 70.3733 104.231 70.18C104.171 69.9867 104.137 69.75 104.131 69.47L103.351 69.94C102.937 70.1867 102.571 70.3833 102.251 70.53C101.931 70.67 101.631 70.7767 101.351 70.85C101.071 70.9167 100.797 70.96 100.531 70.98C100.271 70.9933 99.9906 71 99.6906 71H99.1506V70.34ZM102.341 73C102.207 73 102.101 72.96 102.021 72.88C101.941 72.8067 101.901 72.6833 101.901 72.51C101.901 72.3367 101.941 72.21 102.021 72.13C102.101 72.0567 102.207 72.02 102.341 72.02H102.451C102.584 72.02 102.691 72.0567 102.771 72.13C102.851 72.21 102.891 72.3367 102.891 72.51C102.891 72.6833 102.851 72.8067 102.771 72.88C102.691 72.96 102.584 73 102.451 73H102.341ZM107.091 70.42C106.938 70.6267 106.758 70.7767 106.551 70.87C106.351 70.9567 106.095 71 105.781 71V70.34L105.981 70.14C106.108 70.14 106.215 70.1233 106.301 70.09C106.395 70.0567 106.475 70.0067 106.541 69.94C106.615 69.8667 106.678 69.7733 106.731 69.66C106.791 69.54 106.851 69.4 106.911 69.24L107.191 68.5C107.345 68.1 107.548 67.7933 107.801 67.58C108.055 67.36 108.391 67.25 108.811 67.25C109.305 67.25 109.685 67.4733 109.951 67.92C110.225 68.3667 110.361 68.9867 110.361 69.78V70.25L109.771 71.12L107.091 70.42ZM107.491 69.63L109.661 70.21V69.78C109.661 69.26 109.575 68.8533 109.401 68.56C109.235 68.26 108.998 68.11 108.691 68.11C108.438 68.11 108.241 68.1867 108.101 68.34C107.968 68.4933 107.855 68.6867 107.761 68.92L107.491 69.63ZM110.215 72.54H110.585C110.952 72.54 111.252 72.4867 111.485 72.38C111.719 72.2733 111.902 72.13 112.035 71.95C112.169 71.7767 112.262 71.57 112.315 71.33C112.369 71.0967 112.395 70.85 112.395 70.59C112.395 70.3967 112.385 70.1967 112.365 69.99C112.345 69.7767 112.319 69.5733 112.285 69.38L112.075 68.25L112.775 68.11L112.895 68.83L114.655 68.53V67.71H115.355V69.44C115.355 69.6933 115.425 69.8733 115.565 69.98C115.705 70.0867 115.922 70.14 116.215 70.14H116.565V70.8L116.365 71H116.345C116.039 71 115.779 70.9733 115.565 70.92C115.352 70.86 115.175 70.77 115.035 70.65C114.902 70.5233 114.805 70.36 114.745 70.16C114.685 69.96 114.655 69.72 114.655 69.44V69.36L113.015 69.64C113.029 69.8067 113.039 69.97 113.045 70.13C113.059 70.29 113.065 70.45 113.065 70.61C113.065 70.9767 113.025 71.3267 112.945 71.66C112.865 72 112.729 72.2967 112.535 72.55C112.349 72.81 112.095 73.0167 111.775 73.17C111.462 73.3233 111.065 73.4 110.585 73.4H110.215V72.54ZM114.945 73C114.812 73 114.705 72.96 114.625 72.88C114.545 72.8067 114.505 72.6833 114.505 72.51C114.505 72.3367 114.545 72.21 114.625 72.13C114.705 72.0567 114.812 72.02 114.945 72.02H115.055C115.189 72.02 115.295 72.0567 115.375 72.13C115.455 72.21 115.495 72.3367 115.495 72.51C115.495 72.6833 115.455 72.8067 115.375 72.88C115.295 72.96 115.189 73 115.055 73H114.945ZM116.367 70.34L116.567 70.14H116.917C117.484 70.14 117.767 69.8567 117.767 69.29V63.6H118.507V69.29C118.507 69.8567 118.791 70.14 119.357 70.14H119.707V70.8L119.507 71C118.561 71 118.007 70.6733 117.847 70.02H117.797C117.724 70.3867 117.581 70.6433 117.367 70.79C117.154 70.93 116.821 71 116.367 71V70.34ZM119.512 70.34L119.712 70.14H120.002C120.322 70.14 120.552 70.0667 120.692 69.92C120.839 69.7733 120.912 69.54 120.912 69.22V63.6H121.652V69.22C121.652 69.8333 121.519 70.2833 121.252 70.57C120.992 70.8567 120.575 71 120.002 71H119.512V70.34Z" fill="url(#paint1_linear_56_303)"/>
<defs>
<filter id="filter0_d_56_303" x="102" y="0" width="62" height="53" filterUnits="userSpaceOnUse" color-interpolation-filters="sRGB">
<feFlood flood-opacity="0" result="BackgroundImageFix"/>
<feColorMatrix in="SourceAlpha" type="matrix" values="0 0 0 0 0 0 0 0 0 0 0 0 0 0 0 0 0 0 127 0" result="hardAlpha"/>
<feOffset dy="4"/>
<feComposite in2="hardAlpha" operator="out"/>
<feColorMatrix type="matrix" values="0 0 0 0 0 0 0 0 0 0 0 0 0 0 0 0 0 0 0.6 0"/>
<feBlend mode="normal" in2="BackgroundImageFix" result="effect1_dropShadow_56_303"/>
<feBlend mode="normal" in="SourceGraphic" in2="effect1_dropShadow_56_303" result="shape"/>
</filter>
<linearGradient id="paint0_linear_56_303" x1="105.364" y1="1.14634e-06" x2="168.966" y2="72.0297" gradientUnits="userSpaceOnUse">
<stop offset="0.219" stop-color="#1A7CBF"/>
<stop offset="1" stop-color="#5DD573"/>
</linearGradient>
<linearGradient id="paint1_linear_56_303" x1="7" y1="67.5" x2="138" y2="67.5" gradientUnits="userSpaceOnUse">
<stop stop-color="#333333"/>
<stop offset="0.61194" stop-color="#999999"/>
</linearGradient>
</defs>
</svg>
